<svg width="23" height="23" viewBox="0 0 23 23" fill="none" xmlns="http://www.w3.org/2000/svg">
<path d="M22.17 10.1098C21.774 10.1098 21.4571 10.4394 21.4571 10.8513V17.5954C21.4571 19.4297 20.0208 20.9181 18.2623 20.9181H4.62067C2.85689 20.9181 1.42581 19.4243 1.42581 17.5954V10.7414C1.42581 10.3295 1.10896 10 0.712903 10C0.316846 10 0 10.3295 0 10.7414V17.5954C0 20.2481 2.07534 22.4009 4.62067 22.4009H18.2623C20.8129 22.4009 22.8829 20.2426 22.8829 17.5954V10.8513C22.8829 10.4449 22.5661 10.1098 22.17 10.1098Z" fill="#F39022"/>
<path d="M10.9359 16.0961C11.0787 16.2389 11.2709 16.3158 11.4577 16.3158C11.6444 16.3158 11.8366 16.2444 11.9794 16.0961L16.6915 11.384C16.9826 11.0929 16.9826 10.6261 16.6915 10.335C16.4005 10.0439 15.9336 10.0439 15.6426 10.335L12.1991 13.784V0.741419C12.1991 0.329519 11.8696 0 11.4577 0C11.0458 0 10.7162 0.329519 10.7162 0.741419V13.784L7.26728 10.335C6.9762 10.0439 6.50938 10.0439 6.21831 10.335C5.92723 10.6261 5.92723 11.0929 6.21831 11.384L10.9359 16.0961Z" fill="#F39022"/>
</svg>
