<svg width="23" height="24" viewBox="0 0 23 24" fill="none" xmlns="http://www.w3.org/2000/svg">
<path fill-rule="evenodd" clip-rule="evenodd" d="M19.2884 11.4555C19.2884 11.8542 18.96 12.1772 18.5553 12.1772C18.1501 12.1772 17.822 11.8542 17.822 11.4555C17.822 11.0566 18.1501 10.7336 18.5553 10.7336C18.96 10.7336 19.2884 11.0566 19.2884 11.4555Z" fill="#999999"/>
<path fill-rule="evenodd" clip-rule="evenodd" d="M21.8631 17.2862C21.8631 18.0356 21.2439 18.6457 20.4825 18.6457H19.5143V13.8159H3.50297V18.6457H2.53473C1.77345 18.6457 1.15401 18.0356 1.15401 17.2862V10.0985C1.15401 9.3491 1.77345 8.73903 2.53473 8.73903H20.4825C21.2439 8.73903 21.8631 9.3491 21.8631 10.0985V17.2862ZM18.3772 21.1145C18.3772 21.864 17.758 22.4741 16.9966 22.4741H6.0207C5.25942 22.4741 4.63999 21.864 4.63999 21.1145V14.9355H18.3772V21.1145ZM4.63999 3.12266C4.63999 2.37322 5.25942 1.76315 6.0207 1.76315H16.9966C17.758 1.76315 18.3772 2.37322 18.3772 3.12266V7.61942H4.63999V3.12266ZM20.4826 7.61942H19.5143V3.12266C19.5143 1.75566 18.3849 0.643555 16.9966 0.643555H6.02072C4.63244 0.643555 3.50302 1.75566 3.50302 3.12266V7.61942H2.53478C1.14651 7.61942 0.0170898 8.73153 0.0170898 10.0985V17.2862C0.0170898 18.6532 1.14651 19.7653 2.53478 19.7653H3.50302V21.1145C3.50302 22.4815 4.63244 23.5936 6.02072 23.5936H16.9966C18.3849 23.5936 19.5143 22.4815 19.5143 21.1145V19.7653H20.4826C21.8708 19.7653 23.0003 18.6532 23.0003 17.2862V10.0985C23.0003 8.73153 21.8708 7.61942 20.4826 7.61942Z" fill="#999999"/>
<path fill-rule="evenodd" clip-rule="evenodd" d="M16.1823 17.8326H7.12405C6.81015 17.8326 6.55554 17.5817 6.55554 17.2727C6.55554 16.9635 6.81015 16.713 7.12405 16.713H16.1823C16.496 16.713 16.7508 16.9635 16.7508 17.2727C16.7508 17.5817 16.496 17.8326 16.1823 17.8326Z" fill="#999999"/>
<path fill-rule="evenodd" clip-rule="evenodd" d="M16.1823 20.7056H7.12405C6.81015 20.7056 6.55554 20.4548 6.55554 20.1458C6.55554 19.8366 6.81015 19.5859 7.12405 19.5859H16.1823C16.496 19.5859 16.7508 19.8366 16.7508 20.1458C16.7508 20.4548 16.496 20.7056 16.1823 20.7056Z" fill="#999999"/>
</svg>
